<svg viewBox="0 0 269 36" xmlns="http://www.w3.org/2000/svg"><path d="M28.43 28.43h-.003c-5.61 5.61-14.704 5.61-20.313 0-5.61-5.61-5.61-14.704 0-20.314 5.61-5.61 14.704-5.61 20.313 0h.002l2.062 2.062-1.677 1.677-2.064-2.063c-4.682-4.684-12.276-4.684-16.96 0-4.684 4.684-4.684 12.278 0 16.962 4.684 4.683 12.278 4.683 16.962 0l.01.01 12.54-12.538-2.382-2.38-12.54 12.537-.003-.004a8.635 8.635 0 0 1-12.212 0 8.635 8.635 0 0 1 0-12.213 8.635 8.635 0 0 1 12.212 0l.004-.005 2.065 2.063-1.654 1.654-2.062-2.065a6.304 6.304 0 1 0 0 8.915L35.27 10.19l-4.46-4.458c-6.923-6.925-18.15-6.925-25.076 0-6.926 6.925-6.926 18.152 0 25.078 6.925 6.925 18.153 6.925 25.078 0l12.54-12.54-2.382-2.38-12.54 12.54zm-8.096-8.094l-.013-.013a2.9 2.9 0 1 1 0-4.1l.014-.013 2.063 2.063-2.063 2.063zm36.028-8.363c-3.28 0-6.3 2.654-6.3 6.74 0 4.32 3.098 6.845 6.612 6.845 3.15 0 5.18-1.848 5.83-4.06l-2.89-.86c-.415 1.147-1.3 1.953-2.914 1.953-1.718 0-3.15-1.222-3.227-2.914h9.16c0-.052.053-.573.053-1.067 0-4.113-2.37-6.637-6.324-6.637zm-2.81 5.335c.077-1.17 1.066-2.525 2.862-2.525 1.978 0 2.81 1.25 2.862 2.525H53.55zm22.34-3.175h-8.043V6.716h-3.592v18.452h3.59v-7.652h8.043v7.652h3.62V6.716h-3.62v7.417zm13.787-3.488c1.014 0 1.846-.806 1.846-1.822a1.855 1.855 0 0 0-1.847-1.847c-1.042 0-1.823.833-1.823 1.847 0 1.016.78 1.822 1.822 1.822zm-5.466 0c1.015 0 1.847-.806 1.847-1.822a1.855 1.855 0 0 0-1.846-1.847c-1.015 0-1.822.833-1.822 1.847a1.81 1.81 0 0 0 1.822 1.822zm8.198 6.195c0-2.577-1.51-4.867-5.57-4.867-3.435 0-5.283 2.212-5.49 4.216l3.07.65c.104-1.12.937-2.083 2.446-2.083 1.458 0 2.16.755 2.16 1.666 0 .442-.234.807-.963.91l-3.148.47c-2.135.312-3.826 1.587-3.826 3.877 0 2.004 1.667 3.852 4.4 3.852 1.9 0 3.122-.885 3.773-1.9 0 .495.052 1.197.13 1.536h3.175a14.368 14.368 0 0 1-.156-2.03V16.84zm-3.383 3.148c0 2.265-1.355 2.968-2.812 2.968-1.12 0-1.666-.73-1.666-1.484 0-.99.703-1.484 1.588-1.614l2.89-.442v.572zm5.388-13.663h3.46v18.842h-3.46V6.325zm11.27 11.087l-1.823-.39c-.703-.13-1.17-.52-1.17-1.146 0-.728.728-1.275 1.638-1.275 1.458 0 2.004.964 2.11 1.72l2.887-.652c-.156-1.38-1.38-3.695-5.023-3.695-2.758 0-4.788 1.9-4.788 4.19 0 1.795 1.118 3.28 3.59 3.825l1.692.39c.99.21 1.38.678 1.38 1.25 0 .677-.547 1.275-1.692 1.275-1.51 0-2.265-.937-2.343-1.952l-2.967.652c.157 1.457 1.484 3.956 5.336 3.956 3.357 0 4.97-2.134 4.97-4.216 0-1.874-1.275-3.41-3.8-3.93zm11.278-5.44c-3.826 0-6.714 2.837-6.714 6.793 0 3.93 2.888 6.793 6.714 6.793 3.826 0 6.715-2.863 6.715-6.793 0-3.956-2.888-6.792-6.714-6.792zm0 10.437c-1.692 0-3.253-1.25-3.253-3.645 0-2.42 1.56-3.643 3.253-3.643 1.692 0 3.253 1.223 3.253 3.643s-1.562 3.644-3.254 3.644zm22.88-10.412c-1.692 0-3.046.573-4.06 2.135-.652-1.38-2.056-2.135-3.8-2.135-1.406 0-3.046.678-3.748 1.927v-1.562h-3.306v12.805h3.462v-7.496c0-1.405.885-2.524 2.394-2.524 1.562 0 2.264 1.04 2.264 2.42v7.6h3.436v-7.496c0-1.38.885-2.524 2.368-2.524 1.588 0 2.264 1.04 2.264 2.42v7.6h3.358v-8.303c0-3.435-2.265-4.867-4.633-4.867zm12.05 7.86l-3.41-7.495h-3.876l5.44 11.19-3.02 6.663h3.67l8.042-17.853h-3.696l-3.15 7.495zm14.883-7.834c-1.38 0-2.916.6-3.696 1.926v-1.587h-3.358v12.805h3.46v-7.366c0-1.483.886-2.654 2.396-2.654 1.665 0 2.368 1.12 2.368 2.55v7.47h3.462V17.1c0-2.81-1.458-5.076-4.633-5.076zm19.05-5.7h-3.41v7.314c-.365-.676-1.406-1.587-3.618-1.587-3.618 0-6.142 2.94-6.142 6.69 0 3.877 2.602 6.74 6.246 6.74 1.718 0 3.02-.78 3.592-1.796 0 .6.078 1.223.13 1.484h3.305a26.263 26.263 0 0 1-.104-2.317V6.326zm-6.508 16.06c-1.82 0-3.175-1.354-3.175-3.645 0-2.29 1.406-3.592 3.175-3.592 1.77 0 3.15 1.275 3.15 3.565 0 2.317-1.38 3.67-3.15 3.67zm8.833-10.02h3.46v12.804h-3.46V12.363zm1.717-6.35c-1.17 0-2.134.962-2.134 2.16 0 1.144.963 2.107 2.134 2.107a2.12 2.12 0 0 0 2.134-2.107c0-1.197-.936-2.16-2.134-2.16zm12.89 7.858c-.443-.86-1.614-1.743-3.644-1.743-3.514 0-5.96 2.86-5.96 6.245 0 3.59 2.55 6.22 5.96 6.22 1.848 0 3.045-.807 3.565-1.64v.937c0 2.472-1.223 3.566-3.41 3.566-1.638 0-2.757-1.015-2.992-2.42l-3.122.832c.364 2.446 2.707 4.633 6.22 4.633 4.815 0 6.715-3.202 6.715-6.715V12.363h-3.332v1.51zm-3.045 7.756c-1.796 0-3.07-1.25-3.07-3.253 0-1.978 1.352-3.227 3.07-3.227 1.665 0 3.02 1.25 3.02 3.227 0 1.978-1.25 3.253-3.02 3.253zm15.33-9.604c-1.222 0-2.627.417-3.46 1.406V6.325h-3.462v18.843h3.462v-7.522c.078-1.405.937-2.498 2.394-2.498 1.667 0 2.37 1.12 2.37 2.55v7.47h3.46V17.1c0-2.81-1.51-5.076-4.762-5.076zm12.31-.05c-3.28 0-6.298 2.653-6.298 6.74 0 4.32 3.096 6.844 6.61 6.844 3.15 0 5.18-1.848 5.83-4.06l-2.89-.86c-.416 1.147-1.3 1.953-2.914 1.953-1.718 0-3.15-1.222-3.227-2.914h9.16c0-.052.05-.573.05-1.067 0-4.113-2.367-6.637-6.323-6.637zm-2.81 5.334c.078-1.17 1.067-2.525 2.862-2.525 1.977 0 2.81 1.25 2.862 2.525h-5.726zm15.07-8.77h-3.123v1.795c0 1.145-.624 2.03-1.977 2.03h-.65v3.07h2.315v5.96c0 2.473 1.56 3.956 4.06 3.956 1.015 0 1.64-.182 1.952-.313v-2.862c-.182.05-.65.103-1.067.103-.988 0-1.51-.364-1.51-1.483v-5.36h2.577v-3.072h-2.576V8.537zm9.48 3.435c-3.278 0-6.298 2.654-6.298 6.74 0 4.32 3.097 6.845 6.61 6.845 3.15 0 5.18-1.848 5.83-4.06l-2.89-.86c-.416 1.147-1.3 1.953-2.914 1.953-1.717 0-3.15-1.222-3.227-2.914h9.16c0-.052.052-.573.052-1.067 0-4.113-2.368-6.637-6.325-6.637zm-2.81 5.335c.078-1.17 1.067-2.525 2.863-2.525 1.977 0 2.81 1.25 2.863 2.525h-5.726zm17.617-5.284c-1.38 0-2.914.6-3.695 1.926v-1.587h-3.358v12.805h3.46v-7.366c0-1.483.886-2.654 2.395-2.654 1.666 0 2.37 1.12 2.37 2.55v7.47h3.46V17.1c0-2.81-1.457-5.076-4.633-5.076z" fill="#99317A" fill-rule="evenodd"/></svg>